{
  "accessors": [
    {
      "bufferView": 2,
      "componentType": 5126,
      "count": 5195,
      "max": [0.6168919801712036, 1.0, 0.22936299443244934],
      "min": [-0.6168919801712036, -1.0, -0.22936299443244934],
      "type": "VEC3"
    },
    {
      "bufferView": 2,
      "byteOffset": 62340,
      "componentType": 5126,
      "count": 5195,
      "max": [1.0, 1.0, 1.0],
      "min": [-1.0, -1.0, -1.0],
      "type": "VEC3"
    },
    {
      "bufferView": 3,
      "componentType": 5126,
      "count": 5195,
      "max": [1.0, 1.0, 1.0, 1.0],
      "min": [-0.9999995231628418, -1.0, -1.0, -1.0],
      "type": "VEC4"
    },
    {
      "bufferView": 1,
      "componentType": 5126,
      "count": 5195,
      "max": [0.9917969703674316, 0.9205710291862488],
      "min": [0.013126599602401257, 0.008661359548568726],
      "type": "VEC2"
    },
    {
      "bufferView": 0,
      "componentType": 5125,
      "count": 20532,
      "type": "SCALAR"
    }
  ],
  "asset": {
    "extras": {
      "author": "danny_p3d (https://sketchfab.com/dannyp_3d)",
      "license": "CC-BY-NC-4.0 (http://creativecommons.org/licenses/by-nc/4.0/)",
      "source": "https://sketchfab.com/3d-models/game-boy-original-1fbe899d33004f7bb4cb4b74c8d8c881",
      "title": "Game Boy Original"
    },
    "generator": "Sketchfab-15.25.0",
    "version": "2.0"
  },
  "bufferViews": [
    {
      "buffer": 0,
      "byteLength": 82128,
      "name": "floatBufferViews",
      "target": 34963
    },
    {
      "buffer": 0,
      "byteLength": 41560,
      "byteOffset": 82128,
      "byteStride": 8,
      "name": "floatBufferViews",
      "target": 34962
    },
    {
      "buffer": 0,
      "byteLength": 124680,
      "byteOffset": 123688,
      "byteStride": 12,
      "name": "floatBufferViews",
      "target": 34962
    },
    {
      "buffer": 0,
      "byteLength": 83120,
      "byteOffset": 248368,
      "byteStride": 16,
      "name": "floatBufferViews",
      "target": 34962
    }
  ],
  "buffers": [
    {
      "byteLength": 331488,
      "uri": "scene.bin"
    }
  ],
  "images": [
    {
      "uri": "textures/lambert1_baseColor.jpeg"
    },
    {
      "uri": "textures/lambert1_metallicRoughness.png"
    },
    {
      "uri": "textures/lambert1_normal.jpeg"
    }
  ],
  "materials": [
    {
      "doubleSided": true,
      "name": "lambert1",
      "normalTexture": {
        "index": 2
      },
      "pbrMetallicRoughness": {
        "baseColorTexture": {
          "index": 0
        },
        "metallicRoughnessTexture": {
          "index": 1
        }
      }
    }
  ],
  "meshes": [
    {
      "name": "defaultMaterial",
      "primitives": [
        {
          "attributes": {
            "NORMAL": 1,
            "POSITION": 0,
            "TANGENT": 2,
            "TEXCOORD_0": 3
          },
          "indices": 4,
          "material": 0,
          "mode": 4
        }
      ]
    }
  ],
  "nodes": [
    {
      "children": [1],
      "matrix": [
        1.0, 0.0, 0.0, 0.0, 0.0, 2.220446049250313e-16, -1.0, 0.0, 0.0, 1.0, 2.220446049250313e-16, 0.0, 0.0, 0.0, 0.0, 1.0
      ],
      "name": "Sketchfab_model"
    },
    {
      "children": [2],
      "matrix": [
        1.0, 0.0, 0.0, 0.0, 0.0, -4.371139006309477e-8, 0.999999999999999, 0.0, 0.0, -0.999999999999999, -4.371139006309477e-8,
        0.0, 0.0, 0.0, 0.0, 1.0
      ],
      "name": "Collada visual scene group"
    },
    {
      "children": [3],
      "name": "pCylinder7"
    },
    {
      "mesh": 0,
      "name": "defaultMaterial"
    }
  ],
  "samplers": [
    {
      "magFilter": 9729,
      "minFilter": 9987,
      "wrapS": 10497,
      "wrapT": 10497
    }
  ],
  "scene": 0,
  "scenes": [
    {
      "name": "Sketchfab_Scene",
      "nodes": [0]
    }
  ],
  "textures": [
    {
      "sampler": 0,
      "source": 0
    },
    {
      "sampler": 0,
      "source": 1
    },
    {
      "sampler": 0,
      "source": 2
    }
  ]
}
