{
  "accessors": [
    {
      "bufferView": 2,
      "componentType": 5126,
      "count": 72,
      "max": [-13.036391258239746, 98.24390411376953, 96.4104232788086],
      "min": [-50.76237106323242, -125.84130096435547, 18.637760162353516],
      "type": "VEC3"
    },
    {
      "bufferView": 2,
      "byteOffset": 864,
      "componentType": 5126,
      "count": 72,
      "max": [1.0, 5.186388989386614e-7, 3.780737927172595e-7],
      "min": [-1.0, -5.186388989386614e-7, -3.780737927172595e-7],
      "type": "VEC3"
    },
    {
      "bufferView": 0,
      "componentType": 5125,
      "count": 108,
      "type": "SCALAR"
    },
    {
      "bufferView": 2,
      "byteOffset": 1728,
      "componentType": 5126,
      "count": 27328,
      "max": [131.23770141601563, 109.83350372314453, 108.0],
      "min": [-50.762359619140625, -137.85400390625, 0.0],
      "type": "VEC3"
    },
    {
      "bufferView": 2,
      "byteOffset": 329664,
      "componentType": 5126,
      "count": 27328,
      "max": [1.0, 1.0, 1.0],
      "min": [-1.0, -1.0, -1.0],
      "type": "VEC3"
    },
    {
      "bufferView": 1,
      "componentType": 5126,
      "count": 27328,
      "max": [40.72161865234375, 19.687480926513672],
      "min": [-40.72161865234375, 0.0020439999643713236],
      "type": "VEC2"
    },
    {
      "bufferView": 0,
      "byteOffset": 432,
      "componentType": 5125,
      "count": 36432,
      "type": "SCALAR"
    },
    {
      "bufferView": 2,
      "byteOffset": 657600,
      "componentType": 5126,
      "count": 62,
      "max": [71.94310760498047, 104.40850067138672, 30.062519073486328],
      "min": [-19.137319564819336, -88.7300033569336, 0.0],
      "type": "VEC3"
    },
    {
      "bufferView": 0,
      "byteOffset": 146160,
      "componentType": 5125,
      "count": 176,
      "type": "SCALAR"
    }
  ],
  "asset": {
    "extras": {
      "author": "jimbogies (https://sketchfab.com/jimbogies)",
      "license": "CC-BY-4.0 (http://creativecommons.org/licenses/by/4.0/)",
      "source": "https://sketchfab.com/3d-models/waiting-room-with-baked-textures-9e837505865a4df393ede1426a0fe878",
      "title": "Waiting Room with Baked Textures"
    },
    "generator": "Sketchfab-15.27.0",
    "version": "2.0"
  },
  "bufferViews": [
    {
      "buffer": 0,
      "byteLength": 146864,
      "name": "floatBufferViews",
      "target": 34963
    },
    {
      "buffer": 0,
      "byteLength": 218624,
      "byteOffset": 146864,
      "byteStride": 8,
      "name": "floatBufferViews",
      "target": 34962
    },
    {
      "buffer": 0,
      "byteLength": 658344,
      "byteOffset": 365488,
      "byteStride": 12,
      "name": "floatBufferViews",
      "target": 34962
    }
  ],
  "buffers": [
    {
      "byteLength": 1023832,
      "uri": "scene.bin"
    }
  ],
  "extensionsUsed": ["KHR_materials_emissive_strength"],
  "images": [
    {
      "uri": "textures/auto_baseColor.jpeg"
    },
    {
      "uri": "textures/auto_metallicRoughness.png"
    }
  ],
  "materials": [
    {
      "emissiveFactor": [1.0, 1.0, 1.0],
      "extensions": {
        "KHR_materials_emissive_strength": {
          "emissiveStrength": 4.617156928478257
        }
      },
      "name": "WindowColor",
      "pbrMetallicRoughness": {
        "metallicFactor": 0.0,
        "roughnessFactor": 0.0
      }
    },
    {
      "name": "auto",
      "pbrMetallicRoughness": {
        "baseColorTexture": {
          "index": 0
        },
        "metallicFactor": 0.0,
        "metallicRoughnessTexture": {
          "index": 1
        }
      }
    },
    {
      "name": "edge_color000255",
      "pbrMetallicRoughness": {
        "metallicFactor": 0.0,
        "roughnessFactor": 0.6
      }
    }
  ],
  "meshes": [
    {
      "name": "Material2",
      "primitives": [
        {
          "attributes": {
            "NORMAL": 1,
            "POSITION": 0
          },
          "indices": 2,
          "material": 0,
          "mode": 4
        }
      ]
    },
    {
      "name": "Material2",
      "primitives": [
        {
          "attributes": {
            "NORMAL": 4,
            "POSITION": 3,
            "TEXCOORD_0": 5
          },
          "indices": 6,
          "material": 1,
          "mode": 4
        }
      ]
    },
    {
      "name": "Material2",
      "primitives": [
        {
          "attributes": {
            "POSITION": 7
          },
          "indices": 8,
          "material": 2,
          "mode": 1
        }
      ]
    }
  ],
  "nodes": [
    {
      "children": [1],
      "matrix": [
        1.0, 0.0, 0.0, 0.0, 0.0, 2.220446049250313e-16, -1.0, 0.0, 0.0, 1.0, 2.220446049250313e-16, 0.0, 0.0, 0.0, 0.0, 1.0
      ],
      "name": "Sketchfab_model"
    },
    {
      "children": [2, 3, 4, 5],
      "name": "Collada visual scene group"
    },
    {
      "mesh": 0,
      "name": "Material2"
    },
    {
      "mesh": 1,
      "name": "Material2"
    },
    {
      "mesh": 2,
      "name": "Material2"
    },
    {
      "children": [6],
      "name": "SketchUp"
    },
    {
      "children": [7],
      "matrix": [
        -0.2796877, 0.9600911, 0.0, 0.0, -0.04838952, -0.01409653, 0.9987291, 0.0, 0.9588708, 0.2793322, 0.05040097, 0.0,
        249.0665, 81.58015, 45.62453, 1.0
      ],
      "name": "skp_camera_Last_Saved_SketchUp_View"
    },
    {
      "name": "ID1"
    }
  ],
  "samplers": [
    {
      "magFilter": 9729,
      "minFilter": 9987,
      "wrapS": 10497,
      "wrapT": 10497
    }
  ],
  "scene": 0,
  "scenes": [
    {
      "name": "Sketchfab_Scene",
      "nodes": [0]
    }
  ],
  "textures": [
    {
      "sampler": 0,
      "source": 0
    },
    {
      "sampler": 0,
      "source": 1
    }
  ]
}
